<svg width="26" height="26" fill="none" xmlns="http://www.w3.org/2000/svg"><g clip-path="url(#clip0)"><path d="M24.867 4.525A4.606 4.606 0 0020.775.433a76.416 76.416 0 00-16.25 0A4.607 4.607 0 00.433 4.525a76.415 76.415 0 000 16.25 4.607 4.607 0 004.092 4.092 76.42 76.42 0 0016.25 0 4.607 4.607 0 004.092-4.092 76.419 76.419 0 000-16.25z" fill="url(#paint0_linear)"/><path d="M23.49 5.44a4.088 4.088 0 00-3.63-3.631 67.834 67.834 0 00-14.42 0A4.088 4.088 0 001.81 5.44a67.832 67.832 0 000 14.42 4.088 4.088 0 003.631 3.63c4.802.513 9.618.513 14.42 0a4.088 4.088 0 003.63-3.63 67.805 67.805 0 000-14.42z" fill="url(#paint1_linear)"/><g clip-path="url(#clip1)" fill="#fff"><path d="M17.896 7.667c0 1.196-.909 2.166-2.03 2.166-1.123 0-2.032-.97-2.032-2.166 0-1.197.91-2.167 2.031-2.167 1.122 0 2.031.97 2.031 2.167z"/><path d="M15.865 10.333c-1.379 0-2.5-1.196-2.5-2.666 0-1.471 1.121-2.667 2.5-2.667s2.5 1.196 2.5 2.667c0 1.47-1.121 2.666-2.5 2.666zm0-4.333c-.862 0-1.562.748-1.562 1.667 0 .918.7 1.666 1.562 1.666.862 0 1.563-.748 1.563-1.666 0-.919-.7-1.667-1.563-1.667zm2.031 12.333c0 1.197-.909 2.167-2.03 2.167-1.123 0-2.032-.97-2.032-2.167 0-1.196.91-2.166 2.031-2.166 1.122 0 2.031.97 2.031 2.166z"/><path d="M15.865 21c-1.379 0-2.5-1.196-2.5-2.667 0-1.47 1.121-2.666 2.5-2.666s2.5 1.196 2.5 2.666c0 1.471-1.121 2.667-2.5 2.667zm0-4.333c-.862 0-1.562.748-1.562 1.666 0 .919.7 1.667 1.562 1.667.862 0 1.563-.748 1.563-1.667 0-.918-.7-1.666-1.563-1.666zM9.147 13c0 1.197-.91 2.167-2.032 2.167-1.122 0-2.031-.97-2.031-2.167 0-1.197.91-2.167 2.031-2.167 1.122 0 2.032.97 2.032 2.167z"/><path d="M7.115 15.667c-1.378 0-2.5-1.196-2.5-2.667 0-1.47 1.122-2.667 2.5-2.667 1.379 0 2.5 1.196 2.5 2.667 0 1.47-1.121 2.667-2.5 2.667zm0-4.334c-.862 0-1.562.748-1.562 1.667s.7 1.667 1.562 1.667c.862 0 1.563-.748 1.563-1.667s-.7-1.667-1.563-1.667z"/><path d="M8.591 12.68a.618.618 0 01-.544-.337.692.692 0 01.234-.909l5.8-3.527c.299-.183.68-.07.852.25a.695.695 0 01-.234.91l-5.8 3.526a.591.591 0 01-.308.087zm5.799 5.5a.591.591 0 01-.31-.087l-5.799-3.527a.692.692 0 01-.233-.91.604.604 0 01.852-.249l5.8 3.527c.299.182.404.59.233.91a.62.62 0 01-.543.336z"/></g></g><defs><linearGradient id="paint0_linear" x1="12.65" y1="0" x2="12.65" y2="25.3" gradientUnits="userSpaceOnUse"><stop stop-color="#33A0DE"/><stop offset="1" stop-color="#1B55DC"/></linearGradient><linearGradient id="paint1_linear" x1="9.704" y1="10.993" x2="-33.158" y2="-13.117" gradientUnits="userSpaceOnUse"><stop stop-color="#A1B5D8" stop-opacity="0"/><stop offset=".309" stop-color="#90A2BD" stop-opacity=".31"/><stop offset=".755" stop-color="#7C8B9C" stop-opacity=".757"/><stop offset="1" stop-color="#748290"/></linearGradient><clipPath id="clip0"><path fill="#fff" d="M0 0h25.3v25.3H0z"/></clipPath><clipPath id="clip1"><path fill="#fff" transform="translate(4 5)" d="M0 0h15v16H0z"/></clipPath></defs></svg>