<svg width="26" height="27" fill="none" xmlns="http://www.w3.org/2000/svg"><g clip-path="url(#clip0)"><path d="M25.356 5.243a4.606 4.606 0 00-4.092-4.092 76.415 76.415 0 00-16.25 0A4.607 4.607 0 00.923 5.243a76.415 76.415 0 000 16.25 4.607 4.607 0 004.093 4.092 76.42 76.42 0 0016.25 0 4.607 4.607 0 004.091-4.093 76.42 76.42 0 000-16.25z" fill="url(#paint0_linear)"/><path d="M25.356 22.32a51.11 51.11 0 00.43-7.135l-5.782-4.725c-.723-.674-1.778-1.095-3.018-1.131-2.55-.075-5.108-.071-7.659 0-2.118.06-3.6 1.223-3.98 2.933-.066.302-.106.608-.159.912v5.013c.03.162.072.324.085.487a3.422 3.422 0 001.446 2.534l5.885 4.808c2.888.017 5.776-.1 8.66-.352 2.158-.188 3.862-1.58 4.092-3.344z" fill="url(#paint1_linear)"/><path d="M4.084 11.404l2.311 8.935 3.197-5.613-5.508-3.322zm15.081-3.9l2.31 8.935-5.49-3.347 3.18-5.588zM4.31 10.913l14.392-3.722-4.133 7.353a2.205 2.205 0 01-3.08.796L4.31 10.913z" fill="#fff"/><path d="M14.976 14.773a2.685 2.685 0 01-1.66 1.277 2.69 2.69 0 01-2.072-.312l-1.218-.751-3.193 5.681 14.392-3.722-5.548-3.42-.7 1.247z" fill="#fff"/></g><defs><linearGradient id="paint0_linear" x1="13.139" y1=".718" x2="13.139" y2="26.018" gradientUnits="userSpaceOnUse"><stop stop-color="#33A0DE"/><stop offset="1" stop-color="#1B55DC"/></linearGradient><linearGradient id="paint1_linear" x1="11.7" y1="14.476" x2="6.686" y2="8.34" gradientUnits="userSpaceOnUse"><stop stop-color="#833AB4" stop-opacity="0"/><stop offset="1" stop-color="#833AB4"/></linearGradient><clipPath id="clip0"><path fill="#fff" transform="translate(.49 .718)" d="M0 0h25.3v25.3H0z"/></clipPath></defs></svg>