<svg width="26" height="26" fill="none" xmlns="http://www.w3.org/2000/svg"><g clip-path="url(#clip0)"><path d="M24.867 5.085A4.606 4.606 0 0020.776.993a76.416 76.416 0 00-16.249 0A4.607 4.607 0 00.434 5.085a76.416 76.416 0 000 16.25 4.607 4.607 0 004.092 4.092 76.422 76.422 0 0016.25 0 4.607 4.607 0 004.091-4.093 76.42 76.42 0 000-16.25z" fill="url(#paint0_linear)"/><path d="M23.491 6a4.088 4.088 0 00-3.63-3.631 67.835 67.835 0 00-14.42 0A4.088 4.088 0 001.81 6a67.833 67.833 0 000 14.42 4.088 4.088 0 003.63 3.63c4.803.513 9.619.513 14.42 0a4.088 4.088 0 003.631-3.63 67.806 67.806 0 000-14.42z" fill="url(#paint1_linear)"/><g clip-path="url(#clip1)"><path d="M15.829 4.725l-5.715-.015c-1.007 0-1.904.97-1.904 2l-.55.013c-1.008 0-1.831.957-1.831 1.987v10c0 1.03.897 2 1.904 2h7.143c1.008 0 1.905-.97 1.905-2h.476c1.008 0 1.905-.97 1.905-2V8.722l-3.333-3.997zm-.953 14.985H7.733c-.5 0-.952-.49-.952-1v-10c0-.744.583-1 1.429-1v9c0 1.03.897 2 1.904 2l5.719-.006c0 .607-.38 1.006-.957 1.006zm.953-4.495h-4.286a.488.488 0 01-.476-.5c0-.275.213-.499.476-.499h4.286c.262 0 .476.224.476.5s-.213.5-.476.5zm0-2.497h-4.286a.488.488 0 01-.476-.5c0-.276.213-.5.476-.5h4.286c.262 0 .476.224.476.5s-.213.5-.476.5zm.952-4.008c-.507 0-.952-.48-.952-1V5.725l2.38 2.985h-1.428z" fill="#fff"/></g></g><defs><linearGradient id="paint0_linear" x1="12.651" y1=".56" x2="12.651" y2="25.86" gradientUnits="userSpaceOnUse"><stop stop-color="#33A0DE"/><stop offset="1" stop-color="#1B55DC"/></linearGradient><linearGradient id="paint1_linear" x1="9.704" y1="11.552" x2="-33.157" y2="-12.557" gradientUnits="userSpaceOnUse"><stop stop-color="#A1B5D8" stop-opacity="0"/><stop offset=".309" stop-color="#90A2BD" stop-opacity=".31"/><stop offset=".755" stop-color="#7C8B9C" stop-opacity=".757"/><stop offset="1" stop-color="#748290"/></linearGradient><clipPath id="clip0"><path fill="#fff" transform="translate(0 .56)" d="M0 0h25.3v25.3H0z"/></clipPath><clipPath id="clip1"><path fill="#fff" transform="translate(4.876 4.71)" d="M0 0h15.238v16H0z"/></clipPath></defs></svg>