<svg width="27" height="28" fill="none" xmlns="http://www.w3.org/2000/svg"><path d="M25.384 5.977a4.606 4.606 0 00-4.092-4.092 76.416 76.416 0 00-16.25 0A4.607 4.607 0 00.95 5.977a76.415 76.415 0 000 16.25 4.607 4.607 0 004.092 4.092 76.408 76.408 0 0016.25 0 4.606 4.606 0 004.092-4.092 76.42 76.42 0 000-16.25z" fill="url(#paint0_linear)"/><g clip-path="url(#clip0)" fill="#fff"><path d="M19.113 12.816c.302-.373.484-.848.484-1.365a2.175 2.175 0 00-2.172-2.172 2.175 2.175 0 00-2.172 2.172c0 .517.182.992.485 1.366-.287.091-.56.226-.807.397a2.171 2.171 0 00-3.583 0 3.04 3.04 0 00-.808-.397 2.16 2.16 0 00.485-1.366 2.175 2.175 0 00-2.172-2.172 2.175 2.175 0 00-2.172 2.172c0 .517.182.992.485 1.365A3.032 3.032 0 005.057 15.7v2.689c0 .262.213.474.475.474h3.811v2.516c0 .262.213.475.475.475h6.643a.474.474 0 00.474-.475v-2.516h3.812a.474.474 0 00.474-.474V15.7a3.032 3.032 0 00-2.108-2.884zm-1.688-2.588a1.224 1.224 0 01.001 2.446h-.002a1.224 1.224 0 01.001-2.446zm-4.286 2.99a1.224 1.224 0 010 2.446 1.225 1.225 0 01-1.223-1.223c0-.665.54-1.223 1.223-1.223zm-4.286-2.99a1.224 1.224 0 01.001 2.446h-.002a1.224 1.224 0 01.001-2.446zM6.006 15.7a2.08 2.08 0 012.077-2.077h1.54c.503 0 .99.184 1.365.512-.085.6.086 1.207.462 1.672a3.035 3.035 0 00-2.006 2.107H8.03V16.14a.475.475 0 00-.949 0v1.776H6.006V15.7zm9.98 5.205h-.949v-1.403a.475.475 0 00-.949 0v1.403H12.19v-1.403a.475.475 0 00-.949 0v1.403h-.949V18.69a2.08 2.08 0 012.077-2.077h1.54a2.08 2.08 0 012.077 2.078v2.214zm4.286-2.99h-1.075v-1.776a.475.475 0 00-.95 0v1.776h-1.413a3.035 3.035 0 00-2.006-2.108c.363-.449.55-1.052.462-1.672a2.083 2.083 0 011.365-.512h1.54a2.08 2.08 0 012.077 2.077v2.215zm-9.695-9.79a.474.474 0 10.864-.392l-.633-1.392a.474.474 0 10-.863.393l.632 1.391zm4.497.236c.239.109.52.003.628-.236l.633-1.391a.474.474 0 10-.864-.393l-.633 1.392a.474.474 0 00.236.628zm-1.935-.304a.474.474 0 00.475-.475V6.195a.474.474 0 10-.95 0v1.387c0 .262.213.475.475.475z"/></g><defs><linearGradient id="paint0_linear" x1="13.167" y1="1.452" x2="13.167" y2="26.752" gradientUnits="userSpaceOnUse"><stop stop-color="#33A0DE"/><stop offset="1" stop-color="#1B55DC"/></linearGradient><clipPath id="clip0"><path fill="#fff" transform="translate(5.057 5.705)" d="M0 0h16.164v16.164H0z"/></clipPath></defs></svg>