<svg width="26" height="26" fill="none" xmlns="http://www.w3.org/2000/svg"><g clip-path="url(#clip0)"><path d="M25.356 4.598A4.606 4.606 0 0021.264.506a76.415 76.415 0 00-16.25 0A4.607 4.607 0 00.923 4.598a76.415 76.415 0 000 16.25 4.607 4.607 0 004.093 4.092 76.408 76.408 0 0016.25 0 4.607 4.607 0 004.091-4.092 76.42 76.42 0 000-16.25z" fill="url(#paint0_linear)"/><path d="M23.98 5.513a4.088 4.088 0 00-3.631-3.631 67.835 67.835 0 00-14.42 0A4.088 4.088 0 002.3 5.513a67.834 67.834 0 000 14.42 4.088 4.088 0 003.63 3.63c4.802.513 9.618.513 14.42 0a4.088 4.088 0 003.631-3.63 67.806 67.806 0 000-14.42z" fill="url(#paint1_linear)"/></g><path d="M17.5 15.272c-1.326 1.048-2.88 1.711-4.59 1.711-3.143 0-5.709-1.955-5.709-5.254 0-3.247 2.461-5.621 5.813-5.621 2.81 0 4.696 1.623 4.696 4.05 0 1.71-.943 3.334-1.938 3.334-.401 0-.61-.227-.61-.664 0-.174.034-.331.086-.54l1.188-4.05h-1.92l-.21.733c-.314-.681-.943-1.048-1.798-1.048-1.903 0-3.561 1.955-3.561 4.207 0 1.659.96 2.74 2.409 2.74.977 0 1.78-.505 2.321-1.465.14.855.664 1.413 1.589 1.413 2.287 0 3.718-2.478 3.718-4.52 0-3.387-2.828-5.273-5.987-5.273-3.98 0-7.053 2.898-7.053 6.651 0 3.893 3.125 6.39 6.86 6.39 2.2 0 3.632-.734 5.342-1.938l-.646-.856zm-3.753-5.22c0 .42-.262 1.38-.646 2.375-.296.733-.628 1.065-1.1 1.065-.523 0-.802-.384-.802-1.152 0-.856.68-3.038 1.798-3.038.436 0 .75.314.75.75z" fill="#fff"/><defs><linearGradient id="paint0_linear" x1="13.139" y1=".073" x2="13.139" y2="25.373" gradientUnits="userSpaceOnUse"><stop stop-color="#33A0DE"/><stop offset="1" stop-color="#1B55DC"/></linearGradient><linearGradient id="paint1_linear" x1="10.193" y1="11.066" x2="-32.669" y2="-13.044" gradientUnits="userSpaceOnUse"><stop stop-color="#A1B5D8" stop-opacity="0"/><stop offset=".309" stop-color="#90A2BD" stop-opacity=".31"/><stop offset=".755" stop-color="#7C8B9C" stop-opacity=".757"/><stop offset="1" stop-color="#748290"/></linearGradient><clipPath id="clip0"><path fill="#fff" transform="translate(.49 .073)" d="M0 0h25.3v25.3H0z"/></clipPath></defs></svg>