<svg width="26" height="26" fill="none" xmlns="http://www.w3.org/2000/svg"><g clip-path="url(#clip0)"><path d="M25.356 4.936A4.606 4.606 0 0021.264.844a76.415 76.415 0 00-16.25 0A4.607 4.607 0 00.923 4.936a76.416 76.416 0 000 16.25 4.607 4.607 0 004.093 4.091 76.408 76.408 0 0016.25 0 4.607 4.607 0 004.091-4.092 76.42 76.42 0 000-16.25z" fill="url(#paint0_linear)"/><path d="M23.98 5.85a4.088 4.088 0 00-3.631-3.63 67.835 67.835 0 00-14.42 0A4.088 4.088 0 002.3 5.85a67.834 67.834 0 000 14.42 4.088 4.088 0 003.63 3.631c4.802.513 9.618.513 14.42 0a4.088 4.088 0 003.631-3.631 67.806 67.806 0 000-14.42z" fill="url(#paint1_linear)"/><g clip-path="url(#clip1)"><path d="M20.599 9.278l-1.606-.554c.58-.454.829-1.175.65-1.86-.348-1.346-2.08-1.857-3.175-.94l-1.108.928-.22-1.392c-.216-1.37-1.891-2.03-3.07-1.214a1.803 1.803 0 00-.763 1.828l-1.514-.522c-.745-.257-1.571.108-1.842.814l-.656 1.706a.448.448 0 00.287.582l7.488 2.582H7.84a.467.467 0 00-.48.454v6.354c0 .751.645 1.362 1.437 1.362h9.583c.793 0 1.438-.61 1.438-1.362v-5.171l.37.128a.487.487 0 00.614-.272l.656-1.706c.27-.705-.114-1.489-.86-1.745zm-8.448 9.22H8.797a.468.468 0 01-.479-.454v-5.9h3.833v6.354zm1.917 0h-.958v-6.355h.958v6.355zm3.035-11.894c.556-.466 1.433-.204 1.61.477.189.726-.552 1.356-1.294 1.1l-1.558-.537 1.242-1.04zm-4.467-1.625c.599-.415 1.447-.078 1.557.615l.246 1.56-1.558-.538c-.742-.255-.882-1.195-.245-1.637zm.226 4.53L8.36 7.955l.491-1.28a.488.488 0 01.614-.271l4.052 1.397-.655 1.706zm1.8.62l-.9-.31.656-1.706.9.31-.655 1.706zm4.197 7.915c0 .25-.215.454-.479.454h-3.354v-6.355h2.677l1.156.4v5.501zm1.698-7.332l-.491 1.28-4.503-1.552.656-1.707 4.052 1.398a.448.448 0 01.286.582z" fill="#fff"/></g></g><defs><linearGradient id="paint0_linear" x1="13.139" y1=".41" x2="13.139" y2="25.711" gradientUnits="userSpaceOnUse"><stop stop-color="#33A0DE"/><stop offset="1" stop-color="#1B55DC"/></linearGradient><linearGradient id="paint1_linear" x1="10.193" y1="11.403" x2="-32.669" y2="-12.707" gradientUnits="userSpaceOnUse"><stop stop-color="#A1B5D8" stop-opacity="0"/><stop offset=".309" stop-color="#90A2BD" stop-opacity=".31"/><stop offset=".755" stop-color="#7C8B9C" stop-opacity=".757"/><stop offset="1" stop-color="#748290"/></linearGradient><clipPath id="clip0"><path fill="#fff" transform="translate(.49 .41)" d="M0 0h25.3v25.3H0z"/></clipPath><clipPath id="clip1"><path fill="#fff" transform="translate(6.216 3.89)" d="M0 0h16.379v15.517H0z"/></clipPath></defs></svg>