<svg width="27" height="26" fill="none" xmlns="http://www.w3.org/2000/svg"><g clip-path="url(#clip0)"><path d="M25.59 4.65A4.734 4.734 0 0021.385.445a78.53 78.53 0 00-16.7 0A4.734 4.734 0 00.48 4.65a78.529 78.529 0 000 16.7 4.734 4.734 0 004.206 4.205c5.56.593 11.138.593 16.699 0a4.734 4.734 0 004.205-4.206 78.53 78.53 0 000-16.699z" fill="url(#paint0_radial)"/><path d="M24.175 5.59a4.2 4.2 0 00-3.731-3.73 69.712 69.712 0 00-14.818 0 4.201 4.201 0 00-3.732 3.73 69.71 69.71 0 000 14.819 4.201 4.201 0 003.732 3.732 69.77 69.77 0 0014.818 0 4.2 4.2 0 003.732-3.732 69.678 69.678 0 000-14.818z" fill="url(#paint1_linear)"/><path d="M.425 20.81l.055.54a4.734 4.734 0 004.206 4.205 78.53 78.53 0 0016.699 0 4.734 4.734 0 004.205-4.205c.02-.18.038-.36.056-.54H.425z" fill="url(#paint2_linear)"/><path d="M25.59 21.35c.319-2.989.466-5.981.442-8.974L20.09 6.433c-.742-.847-1.827-1.376-3.101-1.422-2.62-.095-5.25-.09-7.87 0-2.177.075-3.7 1.538-4.09 3.689-.069.38-.11.764-.164 1.147v6.304c.03.204.074.408.087.613.088 1.308.625 2.428 1.486 3.187l6.048 6.047a78.58 78.58 0 008.9-.443 4.734 4.734 0 004.205-4.206z" fill="url(#paint3_linear)"/><path d="M25.59 21.35a4.734 4.734 0 01-4.205 4.205 78.648 78.648 0 01-8.9.443l-6.038-6.039c.7.613 1.612.986 2.671 1.026 2.62.099 5.25.096 7.87.002 2.37-.086 4.086-1.84 4.16-4.21.079-2.517.079-5.04 0-7.556-.034-1.094-.418-2.056-1.054-2.784l5.939 5.94a78.735 78.735 0 01-.443 8.972z" fill="url(#paint4_linear)"/><path d="M16.103 10.185a4.165 4.165 0 10-5.883 5.883l9.635 9.635a79.58 79.58 0 001.53-.148 4.734 4.734 0 004.205-4.206c.054-.51.104-1.02.148-1.53l-9.635-9.634z" fill="url(#paint5_linear)"/><path d="M25.985 15.8L18.23 8.047a.988.988 0 00-1.778.6c0 .321.154.606.392.787l9.002 9.003c.061-.878.108-1.757.139-2.635z" fill="url(#paint6_linear)"/><path d="M4.864 9.847c.054-.383.095-.767.164-1.147.39-2.15 1.913-3.614 4.09-3.689 2.62-.09 5.25-.095 7.87 0 2.37.085 4.085 1.84 4.16 4.21.078 2.516.078 5.039 0 7.556-.075 2.37-1.79 4.124-4.16 4.21-2.62.094-5.25.096-7.87-.002-2.37-.09-4.008-1.847-4.167-4.221-.013-.205-.057-.409-.087-.613V9.847zm8.173 9.735c1.2 0 2.4.036 3.598-.009 1.878-.07 3.033-1.19 3.076-3.066.055-2.338.055-4.679 0-7.017-.043-1.875-1.2-3.022-3.076-3.062-2.383-.05-4.768-.05-7.15 0-1.863.039-3.022 1.163-3.072 3.018a130.969 130.969 0 000 7.106c.05 1.855 1.209 2.952 3.072 3.021 1.182.044 2.368.009 3.552.009z" fill="url(#paint7_linear)"/><path d="M4.864 9.847c.054-.383.095-.767.164-1.147.39-2.15 1.913-3.614 4.09-3.689 2.62-.09 5.25-.095 7.87 0 2.37.085 4.085 1.84 4.16 4.21.078 2.516.078 5.039 0 7.556-.075 2.37-1.79 4.124-4.16 4.21-2.62.094-5.25.096-7.87-.002-2.37-.09-4.008-1.847-4.167-4.221-.013-.205-.057-.409-.087-.613V9.847zm8.173 9.735c1.2 0 2.4.036 3.598-.009 1.878-.07 3.033-1.19 3.076-3.066.055-2.338.055-4.679 0-7.017-.043-1.875-1.2-3.022-3.076-3.062-2.383-.05-4.768-.05-7.15 0-1.863.039-3.022 1.163-3.072 3.018a130.969 130.969 0 000 7.106c.05 1.855 1.209 2.952 3.072 3.021 1.182.044 2.368.009 3.552.009z" fill="#fff"/><path d="M13.035 8.836a4.164 4.164 0 100 8.329 4.164 4.164 0 000-8.33zm0 6.895a2.73 2.73 0 110-5.462 2.73 2.73 0 010 5.462zm5.398-7.085a.99.99 0 11-1.981 0 .99.99 0 011.981 0z" fill="#fff"/></g><defs><linearGradient id="paint1_linear" x1="10.007" y1="11.297" x2="-34.04" y2="-13.48" gradientUnits="userSpaceOnUse"><stop stop-color="#A1B5D8" stop-opacity="0"/><stop offset=".309" stop-color="#90A2BD" stop-opacity=".31"/><stop offset=".755" stop-color="#7C8B9C" stop-opacity=".757"/><stop offset="1" stop-color="#748290"/></linearGradient><linearGradient id="paint2_linear" x1="13.035" y1="22.951" x2="13.035" y2="27.004" gradientUnits="userSpaceOnUse"><stop stop-color="#FAE100" stop-opacity="0"/><stop offset=".307" stop-color="#FCA800" stop-opacity=".306"/><stop offset=".627" stop-color="#FE7300" stop-opacity=".627"/><stop offset=".869" stop-color="#FF5200" stop-opacity=".867"/><stop offset="1" stop-color="#FF4500"/></linearGradient><linearGradient id="paint3_linear" x1="11.556" y1="11.484" x2="5.121" y2="5.05" gradientUnits="userSpaceOnUse"><stop stop-color="#833AB4" stop-opacity="0"/><stop offset="1" stop-color="#833AB4"/></linearGradient><linearGradient id="paint4_linear" x1="17.855" y1="23.78" x2="14.643" y2="8.64" gradientUnits="userSpaceOnUse"><stop stop-color="#833AB4" stop-opacity="0"/><stop offset="1" stop-color="#833AB4"/></linearGradient><linearGradient id="paint5_linear" x1="19.076" y1="19.041" x2="6.177" y2="6.142" gradientUnits="userSpaceOnUse"><stop stop-color="#833AB4" stop-opacity="0"/><stop offset="1" stop-color="#833AB4"/></linearGradient><linearGradient id="paint6_linear" x1="20.033" y1="11.236" x2="15.768" y2="6.97" gradientUnits="userSpaceOnUse"><stop stop-color="#833AB4" stop-opacity="0"/><stop offset="1" stop-color="#833AB4"/></linearGradient><linearGradient id="paint7_linear" x1="18.197" y1="7.874" x2="7.68" y2="18.391" gradientUnits="userSpaceOnUse"><stop stop-color="#833AB4"/><stop offset=".092" stop-color="#9C3495"/><stop offset=".293" stop-color="#DC2546"/><stop offset=".392" stop-color="#FD1D1D"/><stop offset=".559" stop-color="#FC6831"/><stop offset=".689" stop-color="#FC9B40"/><stop offset=".752" stop-color="#FCAF45"/><stop offset=".781" stop-color="#FDB750"/><stop offset=".866" stop-color="#FECB6A"/><stop offset=".942" stop-color="#FFD87A"/><stop offset="1" stop-color="#FFDC80"/></linearGradient><radialGradient id="paint0_radial" cx="0" cy="0" r="1" gradientUnits="userSpaceOnUse" gradientTransform="translate(5.365 22.722) scale(28.6734)"><stop stop-color="#FAE100"/><stop offset=".054" stop-color="#FADC04"/><stop offset=".117" stop-color="#FBCE0E"/><stop offset=".183" stop-color="#FCB720"/><stop offset=".251" stop-color="#FE9838"/><stop offset=".305" stop-color="#FF7950"/><stop offset=".492" stop-color="#FF1C74"/><stop offset="1" stop-color="#6C1CD1"/></radialGradient><clipPath id="clip0"><path fill="#fff" transform="translate(.035)" d="M0 0h26v26H0z"/></clipPath></defs></svg>