<svg width="26" height="26" fill="none" xmlns="http://www.w3.org/2000/svg"><g clip-path="url(#clip0)"><path d="M25.356 4.799A4.606 4.606 0 0021.264.707a76.415 76.415 0 00-16.25 0A4.607 4.607 0 00.923 4.799a76.415 76.415 0 000 16.25 4.607 4.607 0 004.093 4.091 76.42 76.42 0 0016.25 0 4.607 4.607 0 004.091-4.092 76.42 76.42 0 000-16.25z" fill="url(#paint0_linear)"/><path d="M23.98 5.714a4.088 4.088 0 00-3.631-3.632 67.835 67.835 0 00-14.42 0A4.088 4.088 0 002.3 5.714a67.834 67.834 0 000 14.419 4.088 4.088 0 003.63 3.631c4.802.513 9.618.513 14.42 0a4.088 4.088 0 003.631-3.631 67.806 67.806 0 000-14.42z" fill="url(#paint1_linear)"/><g clip-path="url(#clip1)"><path d="M19.094 12.024V9.781h-2.161l.416-3.18h-2.262l-.417 3.18h-2.85l.416-3.18H9.974l-.417 3.18H6.481v2.243h2.783l-.328 2.505H6.481v2.243h2.162l-.417 3.182h2.262l.417-3.182h2.85l-.416 3.182H15.6l.417-3.182h3.076v-2.243h-2.782l.327-2.505h2.455zm-5.045 2.505H11.2l.327-2.505h2.85l-.327 2.505z" fill="#fff"/></g></g><defs><linearGradient id="paint0_linear" x1="13.139" y1=".273" x2="13.139" y2="25.574" gradientUnits="userSpaceOnUse"><stop stop-color="#33A0DE"/><stop offset="1" stop-color="#1B55DC"/></linearGradient><linearGradient id="paint1_linear" x1="10.193" y1="11.266" x2="-32.669" y2="-12.843" gradientUnits="userSpaceOnUse"><stop stop-color="#A1B5D8" stop-opacity="0"/><stop offset=".309" stop-color="#90A2BD" stop-opacity=".31"/><stop offset=".755" stop-color="#7C8B9C" stop-opacity=".757"/><stop offset="1" stop-color="#748290"/></linearGradient><clipPath id="clip0"><path fill="#fff" transform="translate(.49 .273)" d="M0 0h25.3v25.3H0z"/></clipPath><clipPath id="clip1"><path fill="#fff" transform="translate(6.111 6.6)" d="M0 0h13.353v13.353H0z"/></clipPath></defs></svg>