<svg width="61" height="61" fill="none" xmlns="http://www.w3.org/2000/svg"><path d="M30.5 29.174a9.283 9.283 0 100-18.565 9.283 9.283 0 000 18.565zm18.565 5.304a6.63 6.63 0 100-13.26 6.63 6.63 0 000 13.26zm-36.942 0a6.63 6.63 0 100-13.26 6.63 6.63 0 000 13.26zM30.5 31.826c-9.506 0-17.24 7.734-17.24 17.24 0 .731.595 1.325 1.327 1.325h31.826c.732 0 1.326-.594 1.326-1.326 0-9.505-7.734-17.239-17.24-17.239zm-16.09 5.591c-.812-.172-1.637-.287-2.475-.287C5.355 37.13 0 42.486 0 49.066c0 .732.594 1.326 1.326 1.326h9.527a3.932 3.932 0 01-.244-1.326c0-4.352 1.421-8.37 3.8-11.648zm34.655-.287c-.838 0-1.663.114-2.474.287 2.379 3.278 3.8 7.296 3.8 11.648 0 .467-.095.91-.244 1.326h9.527c.732 0 1.326-.594 1.326-1.326 0-6.58-5.355-11.934-11.935-11.934z" fill="#fff"/></svg>