<svg width="65" height="65" fill="none" xmlns="http://www.w3.org/2000/svg"><g clip-path="url(#clip0)" fill="#fff"><path d="M29.89 6.074h-2.61a.952.952 0 110-1.904h2.61a.952.952 0 110 1.904zm7.831 0h-4.82a.952.952 0 110-1.904h4.82a.952.952 0 010 1.904z"/><path d="M50.466 0H14.534a2.86 2.86 0 00-2.856 2.856v59.288A2.86 2.86 0 0014.534 65h35.932a2.86 2.86 0 002.856-2.856V27.232a.952.952 0 10-1.904 0v28.344H13.582V9.716h37.836V22.81a.952.952 0 101.904 0V2.856A2.859 2.859 0 0050.466 0zm.952 57.48v4.664a.954.954 0 01-.952.952H14.534a.954.954 0 01-.952-.952V57.48h37.836zM13.582 7.812V2.856a.954.954 0 01.952-.952h35.932a.954.954 0 01.952.952v4.956H13.582z"/><path d="M37.774 21H27.226A6.233 6.233 0 0021 27.226v10.548A6.233 6.233 0 0027.226 44h10.548A6.233 6.233 0 0044 37.774V27.226A6.233 6.233 0 0037.774 21zM32.5 38.789a6.296 6.296 0 01-6.289-6.289 6.296 6.296 0 016.289-6.289 6.296 6.296 0 016.289 6.289 6.296 6.296 0 01-6.289 6.289zm6.44-11.095a1.86 1.86 0 01-1.86-1.858 1.86 1.86 0 011.86-1.858 1.86 1.86 0 011.858 1.858 1.86 1.86 0 01-1.859 1.858z"/><path d="M38.94 25.326a.51.51 0 100 1.021.51.51 0 000-1.021zm-9.241 35.376H35.3a.952.952 0 100-1.904h-5.6a.952.952 0 100 1.904z"/></g><defs><clipPath id="clip0"><path fill="#fff" d="M0 0h65v65H0z"/></clipPath></defs></svg>