<svg width="52" height="53" fill="none" xmlns="http://www.w3.org/2000/svg"><g clip-path="url(#clip0)" fill="#fff"><path d="M39.203 24.11a2.031 2.031 0 100-4.063 2.031 2.031 0 000 4.062z"/><path d="M43.875 4.813h-2.64V2.78a2.031 2.031 0 10-4.063 0v2.031H27.93v-2.03a2.031 2.031 0 10-4.063 0v2.03h-9.14v-2.03a2.031 2.031 0 10-4.063 0v2.03H8.125C3.645 4.813 0 8.457 0 12.938v31.688c0 4.48 3.645 8.125 8.125 8.125h15.54a2.031 2.031 0 000-4.063H8.124a4.067 4.067 0 01-4.063-4.062V12.937a4.067 4.067 0 014.063-4.062h2.54v2.031a2.031 2.031 0 104.062 0V8.875h9.14v2.031a2.031 2.031 0 104.063 0V8.875h9.242v2.031a2.031 2.031 0 104.062 0V8.875h2.641a4.067 4.067 0 014.063 4.063v11.578a2.031 2.031 0 104.062 0V12.938c0-4.48-3.645-8.126-8.125-8.126z"/><path d="M39.71 28.172c-6.775 0-12.288 5.513-12.288 12.289S32.935 52.75 39.71 52.75 52 47.237 52 40.46c0-6.775-5.513-12.288-12.29-12.288zm0 20.515c-4.535 0-8.226-3.69-8.226-8.226 0-4.536 3.69-8.227 8.227-8.227 4.536 0 8.227 3.69 8.227 8.227 0 4.536-3.691 8.227-8.227 8.227z"/><path d="M42.656 38.43h-.914v-2.133a2.031 2.031 0 10-4.062 0v4.164c0 1.122.91 2.031 2.03 2.031h2.946a2.031 2.031 0 100-4.062zM30.367 24.11a2.031 2.031 0 100-4.063 2.031 2.031 0 000 4.062zm-8.836 8.835a2.031 2.031 0 100-4.062 2.031 2.031 0 000 4.062zm-8.836-8.835a2.031 2.031 0 100-4.063 2.031 2.031 0 000 4.062zm0 8.835a2.031 2.031 0 100-4.062 2.031 2.031 0 000 4.062zm0 8.836a2.031 2.031 0 100-4.062 2.031 2.031 0 000 4.062zm8.836 0a2.031 2.031 0 100-4.062 2.031 2.031 0 000 4.062zm0-17.671a2.031 2.031 0 100-4.063 2.031 2.031 0 000 4.062z"/></g><defs><clipPath id="clip0"><path fill="#fff" transform="translate(0 .75)" d="M0 0h52v52H0z"/></clipPath></defs></svg>