<svg width="61" height="62" fill="none" xmlns="http://www.w3.org/2000/svg"><g clip-path="url(#clip0)" fill="#fff"><path d="M49.817 6.165H48.8V5.15A5.09 5.09 0 0043.717.065H11.183A5.09 5.09 0 006.1 5.15v44.733a5.09 5.09 0 005.083 5.083H12.2v1.017a5.09 5.09 0 005.083 5.083h32.534a5.09 5.09 0 005.083-5.083V11.25a5.09 5.09 0 00-5.083-5.084zM40.667 2.1v4.66l-1.315-1.314a1.017 1.017 0 00-1.437 0L36.6 6.76V2.1h4.067zM8.133 49.882V5.15a3.05 3.05 0 013.05-3.05h23.384v7.116a1.017 1.017 0 001.735.72l2.331-2.332 2.332 2.331a1.018 1.018 0 001.735-.719V2.1h1.017a3.05 3.05 0 013.05 3.05v44.733a3.05 3.05 0 01-3.05 3.05H11.183a3.05 3.05 0 01-3.05-3.05zm44.734 6.1a3.05 3.05 0 01-3.05 3.05H17.283a3.05 3.05 0 01-3.05-3.05v-1.017h29.484a5.09 5.09 0 005.083-5.083V8.2h1.017a3.05 3.05 0 013.05 3.05v44.733z"/><path d="M22.297 9.881a1.017 1.017 0 00-.947-.666h-8.133c-.562 0-1.017.456-1.017 1.017v8.133c0 .562.455 1.017 1.017 1.017h8.133c.562 0 1.017-.455 1.017-1.017v-5.679l2.752-2.752-1.438-1.437-1.384 1.384zm-1.963 7.468h-6.1v-6.1h6.1v.595L18.3 13.878l-1.314-1.315-1.438 1.438 2.033 2.033c.398.397 1.04.397 1.438 0l1.315-1.314v2.629zm3.347 5.381l-1.384 1.384a1.017 1.017 0 00-.947-.665h-8.133c-.562 0-1.017.455-1.017 1.016V32.6c0 .561.455 1.016 1.017 1.016h8.133c.562 0 1.017-.455 1.017-1.016v-5.68l2.752-2.751-1.438-1.438zm-3.348 8.852h-6.1v-6.1h6.1v.596L18.3 28.11l-1.314-1.314-1.438 1.437 2.033 2.034c.398.396 1.04.396 1.438 0l1.315-1.315v2.63zm1.017 5.083h-8.133c-.562 0-1.017.456-1.017 1.017v8.133c0 .562.455 1.017 1.017 1.017h8.133c.562 0 1.017-.455 1.017-1.017v-8.133c0-.561-.455-1.017-1.017-1.017zM20.333 44.8h-6.1v-6.1h6.1v6.1zm6.1-29.485H36.6v2.034H26.433v-2.034zm0-4.066h6.1v2.033h-6.1V11.25zm0 18.3H36.6v2.033H26.433V29.55zm0-4.067h6.1v2.033h-6.1v-2.033zm0 17.283H36.6V44.8H26.433v-2.034zm0-4.066h6.1v2.033h-6.1V38.7zm8.134 0H36.6v2.033h-2.033V38.7z"/></g><defs><clipPath id="clip0"><path fill="#fff" transform="translate(0 .065)" d="M0 0h61v61H0z"/></clipPath></defs></svg>