<svg width="59" height="60" fill="none" xmlns="http://www.w3.org/2000/svg"><g clip-path="url(#clip0)"><path d="M58.09 12.22h-4.804a5 5 0 00.377-.617 5.003 5.003 0 00.235-4.012L52.443 3.68A4.997 4.997 0 0049.646.796a5 5 0 00-4.017.116L34.108 6.383a3.459 3.459 0 00-2.018-.647h-5.18a3.46 3.46 0 00-2.018.648L13.372.91A5.002 5.002 0 009.354.796a4.997 4.997 0 00-2.796 2.882L5.102 7.592a5 5 0 00.613 4.628H.91a.91.91 0 00-.911.91v6.556a.91.91 0 001.821 0v-5.645h6.325c.101.035.204.068.308.097l7.645 2.104a60.83 60.83 0 00-4.48 8.179H1.82v-1.093a.91.91 0 00-1.821 0v2.004c0 .502.408.91.91.91h3.248V58.48c0 .503.408.91.91.91h48.864a.91.91 0 00.91-.91v-5.288a.91.91 0 00-1.82 0v4.377H34.962V26.802a48.761 48.761 0 015.129 15.686.91.91 0 001.628.416 50.772 50.772 0 003.625-5.537 51.89 51.89 0 015.322 4.163.91.91 0 001.507-.811 61.07 61.07 0 00-4.004-14.477h4.85V49.55a.91.91 0 101.822 0V26.242h3.248a.91.91 0 00.91-.91V13.13a.91.91 0 00-.91-.911zM46.41 2.557a3.135 3.135 0 012.55-.073 3.13 3.13 0 011.776 1.83l1.455 3.912c.313.842.26 1.747-.15 2.547a3.13 3.13 0 01-1.978 1.61l-14.495 3.99v-4.377c3.259-1.995 11.38-6.11 13.402-3.256a.91.91 0 101.486-1.052c-1.56-2.203-4.848-2.31-9.773-.318-2.029.82-3.901 1.821-5.115 2.516v-.672c0-.488-.1-.952-.283-1.374L46.41 2.557zm-19.5 5h5.18c.914 0 1.657.743 1.657 1.657v7.526c0 .914-.743 1.657-1.657 1.657h-5.18a1.659 1.659 0 01-1.657-1.657V9.214c0-.914.743-1.657 1.657-1.657zM25.38 24.42a48.56 48.56 0 012.839-4.202h2.562a48.38 48.38 0 012.839 4.203h-8.24zM6.96 10.773a3.134 3.134 0 01-.151-2.547l1.456-3.913a3.128 3.128 0 011.774-1.83 3.134 3.134 0 012.551.074L23.715 7.84a3.456 3.456 0 00-.283 1.373v.724c-1.21-.696-3.125-1.727-5.205-2.568-4.925-1.992-8.213-1.885-9.773.318A.91.91 0 109.94 8.74c2.04-2.88 10.296 1.34 13.492 3.312v4.32l-14.495-3.99a3.132 3.132 0 01-1.978-1.61zm16.88 7.6a3.493 3.493 0 002.199 1.735 50.662 50.662 0 00-8.566 19.945 49.83 49.83 0 01-2.7-4.425.909.909 0 00-1.297-.33 52.776 52.776 0 00-4.436 3.24 59.493 59.493 0 018.904-21.787l5.897 1.623zm-17.86 7.87h4.85a61.092 61.092 0 00-4.004 14.476.91.91 0 001.507.811 51.848 51.848 0 015.322-4.163 50.747 50.747 0 003.625 5.537.91.91 0 001.628-.416 48.787 48.787 0 015.129-15.686v30.767H5.979V26.242zm19.878 31.326V26.242h7.284V57.57h-7.284zM45.525 35.3a.91.91 0 00-1.299.329 49.78 49.78 0 01-2.7 4.425 50.648 50.648 0 00-8.565-19.945 3.492 3.492 0 002.199-1.734l5.897-1.624a59.525 59.525 0 018.904 21.787 52.861 52.861 0 00-4.436-3.239zm11.653-10.88h-9.797a60.882 60.882 0 00-4.48-8.178l7.644-2.105c.104-.029.207-.062.308-.097h6.325v10.38z" fill="#fff"/></g><defs><clipPath id="clip0"><path fill="#fff" transform="translate(0 .315)" d="M0 0h59v59H0z"/></clipPath></defs></svg>