<svg width="37" height="30" fill="none" xmlns="http://www.w3.org/2000/svg"><path d="M18.887 6.152L6.047 16.737a.302.302 0 01-.01.067.306.306 0 00-.012.066v10.718c0 .387.141.723.424 1.005.283.283.618.425 1.005.425h8.574v-8.575h5.717v8.575h8.574c.387 0 .723-.142 1.005-.425.283-.282.425-.617.425-1.005V16.87a.314.314 0 00-.023-.133L18.886 6.152z" fill="#4FBEE4"/><path d="M36.638 14.325l-4.89-4.064v-9.11a.694.694 0 00-.2-.514.694.694 0 00-.514-.2h-4.287a.696.696 0 00-.514.2.697.697 0 00-.2.514v4.354L20.582.95c-.475-.387-1.04-.58-1.696-.58-.655 0-1.22.193-1.697.58L1.135 14.325a.649.649 0 00-.246.48.723.723 0 00.156.525l1.385 1.653c.12.134.275.215.469.245a.83.83 0 00.536-.156L18.887 4.188l15.452 12.884c.12.104.275.156.469.156h.067a.762.762 0 00.469-.246l1.384-1.652a.723.723 0 00.156-.525.65.65 0 00-.246-.48z" fill="#4FBEE4"/></svg>