<svg width="37" height="37" fill="none" xmlns="http://www.w3.org/2000/svg"><path d="M31.612 6.215C24.582-.813 13.185-.81 6.156 6.22-.872 13.25-.87 24.647 6.16 31.675c7.03 7.029 18.428 7.027 25.456-.004a18 18 0 00-.004-25.456zM28.147 26.02l-.003.003v-.006l-.912.906a4.8 4.8 0 01-4.53 1.296 15.95 15.95 0 01-4.632-2.076 21.394 21.394 0 01-3.654-2.947 21.562 21.562 0 01-2.73-3.311 16.795 16.795 0 01-2.052-4.152 4.8 4.8 0 011.2-4.902l1.068-1.068a.762.762 0 011.08 0l3.372 3.371c.298.297.3.78.003 1.078l-.003.002-1.98 1.98a1.614 1.614 0 00-.168 2.1 23.15 23.15 0 002.37 2.767 23.13 23.13 0 003.12 2.622c.645.45 1.519.373 2.076-.18l1.914-1.944a.762.762 0 011.078-.003l.002.003 3.378 3.384a.76.76 0 01.003 1.077z" fill="#4FBEE4"/></svg>