<svg width="126" height="30" fill="none" xmlns="http://www.w3.org/2000/svg"><path d="M117.839 5.923a3.842 3.842 0 00-2.583 1.167 3.754 3.754 0 00-1.054 2.606c0 .97.377 1.903 1.054 2.606a3.842 3.842 0 002.583 1.167h2.973V5.923h-2.973zm0-5.658h8.696v29.347h-5.723V19.135h-1.911l-4.875 10.477h-6.367l5.474-11.695a9.463 9.463 0 01-4.121-4.542 9.32 9.32 0 01-.444-6.086 9.423 9.423 0 013.42-5.079 9.609 9.609 0 015.851-1.945zM98.373 13.937l-2.08 7.06h4.116l-2.036-7.06zm3.688 12.745h-7.438l-.893 2.93h-5.92L96.293.265h3.991l8.563 29.347h-5.982l-.804-2.93zM74.747.265v14.042h5.518V.265h5.724v29.347h-5.724v-9.638h-5.518v9.638h-5.723V.265h5.723zM53.434 5.923v7.546h2.973a3.841 3.841 0 002.582-1.167 3.754 3.754 0 001.055-2.606 3.75 3.75 0 00-1.055-2.606 3.841 3.841 0 00-2.582-1.167h-2.973zm0 13.239v10.45H47.71V.265h8.696c2.532 0 4.96.994 6.75 2.763A9.38 9.38 0 0165.952 9.7a9.38 9.38 0 01-2.795 6.672 9.602 9.602 0 01-6.75 2.763l-2.973.027zM13.37 5.922H6.593v23.69H.869V.265h12.5v5.658zm20.902 16.77l-5.24-6.452-5.251 6.47a9.327 9.327 0 01-3.624-4.608 9.21 9.21 0 01-.137-5.836 9.314 9.314 0 013.404-4.77 9.493 9.493 0 015.607-1.829c2.02 0 3.985.641 5.608 1.83a9.314 9.314 0 013.404 4.77 9.21 9.21 0 01-.137 5.835 9.327 9.327 0 01-3.625 4.608l-.009-.018zM28.986 0a15.304 15.304 0 00-8.41 2.567 15.04 15.04 0 00-5.556 6.75 14.844 14.844 0 00-.83 8.663 14.953 14.953 0 004.172 7.662 15.236 15.236 0 007.773 4.084c2.942.573 5.99.271 8.759-.867a15.142 15.142 0 006.8-5.527 14.852 14.852 0 001.39-14.088 14.995 14.995 0 00-3.312-4.877 15.195 15.195 0 00-4.952-3.248A15.334 15.334 0 0028.986 0z" fill="#4FBEE4"/></svg>