<svg width="126" height="23" fill="none" xmlns="http://www.w3.org/2000/svg"><path fill-rule="evenodd" clip-rule="evenodd" d="M16.244 11.631c0-6.488 4.02-10.738 10.135-10.738 5.971 0 10.02 4.336 10.02 10.738 0 6.374-4.049 10.68-10.049 10.68-6.058 0-10.106-4.277-10.106-10.68zm15.618-.086c0-4.307-2.124-6.977-5.54-6.977-3.389 0-5.542 2.728-5.542 6.977 0 2.674.787 4.7 2.187 5.88l3.327-4.039 3.367 4.09c1.405-1.183 2.201-3.24 2.201-5.931zM.647 1.381h14.241V5.2H5.126v16.623H.647V1.381zm38.862 0v20.442h4.45v-7.35h4.594c4.105 0 7.264-2.067 7.264-6.517 0-4.507-3.073-6.575-7.494-6.575h-8.814zm4.45 3.675h4.02c1.98 0 3.473.776 3.473 2.958 0 2.268-1.492 2.928-3.502 2.928h-3.991V5.056zm27.505-3.675h4.479v20.442h-4.48V13.01H63.11v8.814h-4.48V1.381h4.48v7.695h8.355V1.38zm9.394 20.356a7.23 7.23 0 002.498.46c3.302 0 4.91-1.608 6.805-5.771L97.05 1.38h-4.795L87.72 12.148 83.098 1.381H78.13l6 12.633c.064.132.131.266.2.402v.001c.362.721.748 1.49.748 2.239 0 .918-.69 1.75-2.067 1.75-.833 0-1.608-.229-2.154-.458v3.79zM106.841 9.22c.833-5.11 4.25-8.326 9.159-8.326 5.484 0 9.216 4.336 9.216 10.738 0 6.374-3.732 10.68-9.245 10.68-5.196 0-8.814-3.732-9.245-9.445h-3.186v8.957h-4.48V1.381h4.48V9.22h3.301zm13.839 2.326c0-4.307-1.809-6.977-4.737-6.977-2.9 0-4.738 2.728-4.738 6.977 0 4.393 1.809 7.034 4.795 7.063 2.9 0 4.68-2.699 4.68-7.063z" fill="#4F5662"/></svg>