<svg width="128" height="7" fill="none" xmlns="http://www.w3.org/2000/svg"><g clip-path="url(#clip0)"><path fill-rule="evenodd" clip-rule="evenodd" d="M0 1.336c2.187.064 3.448 2.261 4.394 3.618.531.754 1.418 1.637 2.265 1.917 3.133 1.034 4.276-3.963 6.837-5.212 1.399-.69 2.699-.151 3.625.646 1.221 1.055 1.753 2.541 2.935 3.661 1.419 1.357 2.877 1.508 4.492-.172 1.064-1.098 1.616-2.37 2.798-3.468.926-.861 1.911-1.163 2.936-.883 2.167.603 2.856 2.8 4.295 4.308.65.668 1.438 1.206 2.403 1.25V5.685c-1.044-.043-1.93-.581-2.66-1.313C33.258 3.274 32.607 1.83 31.465.84c-.71-.624-1.576-1.034-2.561-.754-1.892.539-2.798 2.951-4.138 4.308-1.379 1.422-3.073 1.917-4.925.237-.907-.818-1.419-1.766-2.148-2.735C16.904.883 15.92-.064 14.62.022c-2.108.129-3.35 2.95-4.059 3.769-.59.732-1.143 1.314-2.187 1.702-1.103.409-2.187-.022-2.935-.604-1.044-.796-1.655-1.787-2.305-2.713C2.345 1.077 1.34.065 0 .022v1.314z" fill="#4FBEE4"/></g><g clip-path="url(#clip1)"><path fill-rule="evenodd" clip-rule="evenodd" d="M59.864 1.336c2.187.064 3.448 2.261 4.393 3.618.532.754 1.419 1.637 2.266 1.917 3.133 1.034 4.275-3.963 6.837-5.212 1.398-.69 2.699-.151 3.625.646 1.221 1.055 1.753 2.541 2.935 3.661 1.419 1.357 2.877 1.508 4.492-.172 1.064-1.098 1.616-2.37 2.798-3.468.926-.861 1.911-1.163 2.935-.883 2.168.603 2.857 2.8 4.295 4.308.65.668 1.439 1.206 2.404 1.25V5.685c-1.044-.043-1.93-.581-2.66-1.313C93.12 3.274 92.47 1.83 91.328.84c-.71-.624-1.577-1.034-2.562-.754-1.891.539-2.797 2.951-4.137 4.308-1.38 1.422-3.074 1.917-4.925.237-.907-.818-1.419-1.766-2.148-2.735-.788-1.013-1.773-1.96-3.073-1.874-2.109.129-3.35 2.95-4.06 3.769-.59.732-1.142 1.314-2.186 1.702-1.103.409-2.187-.022-2.935-.604-1.045-.796-1.656-1.787-2.306-2.713-.788-1.099-1.793-2.111-3.132-2.154v1.314z" fill="#4FBEE4"/></g><g clip-path="url(#clip2)"><path fill-rule="evenodd" clip-rule="evenodd" d="M29 1.336c2.246.064 3.541 2.261 4.512 3.618.547.754 1.457 1.637 2.327 1.917 3.217 1.034 4.391-3.963 7.022-5.212 1.436-.69 2.772-.151 3.723.646 1.254 1.055 1.8 2.541 3.014 3.661 1.457 1.357 2.955 1.508 4.614-.172 1.093-1.098 1.66-2.37 2.873-3.468.951-.861 1.963-1.163 3.015-.883 2.226.603 2.934 2.8 4.411 4.308.668.668 1.477 1.206 2.469 1.25V5.685c-1.073-.043-1.983-.581-2.732-1.313-1.093-1.099-1.76-2.542-2.934-3.533-.728-.624-1.619-1.034-2.63-.754-1.943.539-2.874 2.951-4.25 4.308-1.416 1.422-3.156 1.917-5.058.237-.93-.818-1.457-1.766-2.206-2.735-.809-1.013-1.82-1.96-3.156-1.874-2.165.129-3.44 2.95-4.168 3.769-.607.732-1.174 1.314-2.246 1.702-1.133.409-2.246-.022-3.015-.604-1.073-.796-1.7-1.787-2.368-2.713C31.407 1.077 30.376.065 29 .022v1.314z" fill="#4FBEE4"/></g><g clip-path="url(#clip3)"><path fill-rule="evenodd" clip-rule="evenodd" d="M90 1.336c2.246.064 3.541 2.261 4.512 3.618.547.754 1.457 1.637 2.327 1.917 3.217 1.034 4.391-3.963 7.021-5.212 1.437-.69 2.773-.151 3.724.646 1.254 1.055 1.8 2.541 3.015 3.661 1.456 1.357 2.954 1.508 4.613-.172 1.093-1.098 1.659-2.37 2.873-3.468.951-.861 1.963-1.163 3.015-.883 2.226.603 2.934 2.8 4.411 4.308.668.668 1.477 1.206 2.469 1.25V5.685c-1.073-.043-1.983-.581-2.732-1.313-1.093-1.099-1.76-2.542-2.934-3.533-.728-.624-1.619-1.034-2.63-.754-1.943.539-2.874 2.951-4.249 4.308-1.417 1.422-3.157 1.917-5.059.237-.931-.818-1.457-1.766-2.206-2.735-.809-1.013-1.821-1.96-3.156-1.874-2.165.129-3.44 2.95-4.168 3.769-.607.732-1.174 1.314-2.246 1.702-1.133.409-2.246-.022-3.015-.604-1.073-.796-1.7-1.787-2.368-2.713C92.407 1.077 91.376.065 90 .022v1.314z" fill="#4FBEE4"/></g><defs><clipPath id="clip0"><path fill="#fff" d="M0 0h37v7H0z"/></clipPath><clipPath id="clip1"><path fill="#fff" transform="translate(59.864)" d="M0 0h37v7H0z"/></clipPath><clipPath id="clip2"><path fill="#fff" transform="translate(29)" d="M0 0h38v7H0z"/></clipPath><clipPath id="clip3"><path fill="#fff" transform="translate(90)" d="M0 0h38v7H0z"/></clipPath></defs></svg>