<svg width="380" height="91" fill="none" xmlns="http://www.w3.org/2000/svg"><path d="M353.871 17.8a11.625 11.625 0 00-7.798 3.508 11.255 11.255 0 00-3.185 7.832c0 2.916 1.14 5.72 3.185 7.832a11.625 11.625 0 007.798 3.508h8.979V17.8h-8.979zm0-17.005h26.264V89H362.85V57.51h-5.77l-14.723 31.488h-19.226l16.53-35.149c-5.573-3.067-9.951-7.87-12.446-13.652a27.9 27.9 0 01-1.34-18.29c1.627-6.075 5.26-11.445 10.328-15.267A29.11 29.11 0 01353.871.795zm-58.783 41.091l-6.283 21.222h12.431l-6.148-21.222zm11.136 38.306h-22.461l-2.697 8.807h-17.878L288.805.795h12.053L326.717 89h-18.066l-2.427-8.807zM223.739.795V43h16.664V.795h17.285V89h-17.285V60.03h-16.664v28.968h-17.285V.795h17.285zM159.374 17.8v22.68h8.979a11.625 11.625 0 007.798-3.508 11.255 11.255 0 003.185-7.832c0-2.916-1.14-5.72-3.185-7.832a11.625 11.625 0 00-7.798-3.509h-8.979zm0 39.791V89h-17.285V.795h26.264c7.645 0 14.977 2.988 20.383 8.306 5.406 5.318 8.442 12.531 8.442 20.052 0 7.521-3.036 14.734-8.442 20.052-5.406 5.318-12.738 8.306-20.383 8.306l-8.979.08zM38.383 17.8H17.916v71.199H.632V.795h37.75V17.8zm63.124 50.4L85.679 48.81 69.824 68.254c-5.063-3.343-8.9-8.199-10.945-13.85a27.556 27.556 0 01-.414-17.539c1.776-5.739 5.38-10.764 10.28-14.335a28.761 28.761 0 0116.934-5.498 28.76 28.76 0 0116.934 5.498c4.9 3.571 8.504 8.596 10.28 14.335a27.56 27.56 0 01-.414 17.539c-2.045 5.651-5.882 10.507-10.945 13.85l-.027-.053zM85.544 0a46.374 46.374 0 00-25.4 7.716C52.636 12.7 46.798 19.76 43.366 28.003a44.415 44.415 0 00-2.51 26.036c1.796 8.733 6.181 16.746 12.602 23.029 6.42 6.283 14.588 10.554 23.474 12.275a46.544 46.544 0 0026.452-2.606c8.362-3.42 15.507-9.2 20.533-16.612a44.58 44.58 0 007.709-25.029 44.48 44.48 0 00-3.512-17.313 45.069 45.069 0 00-10-14.66 45.896 45.896 0 00-14.954-9.76A46.502 46.502 0 0085.544 0z" fill="#4FBEE4"/></svg>